<?xml version="1.0" encoding="UTF-8"?>
<svg version="1.1" viewBox="0 0 1600 896" width="1280" height="1280" xmlns="http://www.w3.org/2000/svg">
<path transform="translate(0)" d="m0 0h1600v896h-1600v-896z" fill="#000100"/>
<path transform="translate(542 148)" d="m0 0c0.806-0.00412 1.61-0.00825 2.44-0.0125 2.71-0.00895 5.42 0.0108 8.13 0.0303 1.94-5.09e-4 3.88-0.00276 5.82-0.00664 5.27-0.00543 10.5 0.014 15.8 0.0381 5.51 0.0212 11 0.0207 16.5 0.0227 9.25 0.00645 18.5 0.0277 27.8 0.0591 11.9 0.0403 23.8 0.0577 35.7 0.0673 10.2 0.00829 20.4 0.0255 30.6 0.045 3.29 0.00608 6.58 0.0112 9.87 0.0164 5.16 0.00876 10.3 0.023 15.5 0.0417 1.9 0.00614 3.8 0.0106 5.7 0.0132 2.58 0.00396 5.16 0.0141 7.74 0.0259 0.762-1.84e-4 1.52-3.69e-4 2.31-5.59e-4 5.16 0.0335 5.16 0.0335 6.27 1.15 0.108 1.71 0.147 3.42 0.158 5.13 0.0147 1.67 0.0147 1.67 0.0297 3.37 0.00576 1.23 0.0115 2.46 0.0174 3.73 0.0099 1.29 0.0198 2.58 0.03 3.9 0.0271 3.54 0.0481 7.08 0.068 10.6 0.0218 3.7 0.0492 7.39 0.0761 11.1 0.05 7.01 0.0949 14 0.138 21 0.0585 9.46 0.125 18.9 0.191 28.4 0.104 14.9 0.197 29.8 0.292 44.7 32.7 0.495 32.7 0.495 66 1-0.0792-21.3-0.0792-21.3-0.18-42.6-0.00584-2.66-0.0109-5.32-0.0151-7.98-0.00784-1.04-0.00784-1.04-0.0158-2.1-0.0146-2.04-0.0155-4.08-0.0159-6.12-0.00444-1.15-0.00888-2.3-0.0135-3.49 0.241-2.71 0.241-2.71 2.24-4.71 2.67-0.241 2.67-0.241 6.1-0.227 1.28 1.51e-4 2.56 3.02e-4 3.88 4.58e-4 1.4 0.0102 2.81 0.0206 4.21 0.0313 1.43 0.00373 2.86 0.00658 4.3 0.00858 3.77 0.00764 7.54 0.0273 11.3 0.0494 3.85 0.0204 7.69 0.0296 11.5 0.0397 7.55 0.0215 15.1 0.0556 22.7 0.0977-0.00786-1.89-0.00786-1.89-0.0159-3.81-0.0184-4.77-0.0297-9.54-0.0391-14.3-0.00496-2.05-0.0117-4.09-0.0205-6.14-0.0447-10.7-0.00205-21.4 0.454-32.1 0.0459-1.27 0.0459-1.27 0.0928-2.56 0.29-5.84 0.29-5.84 2.53-8.08 2.61-0.195 5.11-0.265 7.71-0.247 0.805-0.00241 1.61-0.00483 2.44-0.00732 2.71-0.00566 5.43 0.00304 8.14 0.0116 1.94-0.00107 3.88-0.00301 5.82-0.00575 5.28-0.00486 10.6 0.00282 15.8 0.013 5.51 0.00876 11 0.00702 16.5 0.00664 9.26 9.37e-4 18.5 0.00963 27.8 0.0233 10.7 0.0157 21.4 0.021 32.2 0.0203 10.3-6.09e-4 20.6 0.00449 30.9 0.0128 4.39 0.00354 8.78 0.00536 13.2 0.00589 5.16 1e-3 10.3 0.00708 15.5 0.0172 1.9 0.00293 3.8 0.00415 5.7 0.00357 2.58-4.87e-4 5.17 0.00513 7.75 0.0124 0.762-0.00155 1.52-0.0031 2.31-0.00469 5.16 0.0242 5.16 0.0242 6.28 1.14 0.0978 2.58 0.13 5.13 0.12 7.71 8.54e-4 0.818 0.00171 1.64 0.00259 2.48 0.00166 2.76-0.00387 5.52-0.00932 8.28-2.82e-4 1.97-1.24e-4 3.94 4.43e-4 5.91 2.88e-4 5.37-0.00561 10.7-0.0126 16.1-0.00623 5.6-0.00684 11.2-0.00803 16.8-0.00311 10.6-0.0113 21.2-0.0213 31.9-0.0112 12.1-0.0167 24.2-0.0217 36.3-0.0105 24.9-0.0288 49.7-0.0503 74.6-21.1 0.33-42.2 0.66-64 1-1.79 4.48-2.26 6.55-2.32 11.2-0.0199 1.22-0.0397 2.44-0.0602 3.7-0.0116 1.31-0.0231 2.62-0.035 3.97-0.0187 1.36-0.0383 2.72-0.0587 4.08-0.0512 3.57-0.0909 7.14-0.128 10.7-0.0401 3.65-0.0912 7.29-0.141 10.9-0.0966 7.15-0.181 14.3-0.258 21.4-0.812 0.0103-1.62 0.0206-2.46 0.0312-7.64 0.0978-15.3 0.2-22.9 0.308-3.93 0.0553-7.85 0.109-11.8 0.158-3.79 0.0476-7.57 0.0999-11.4 0.156-1.45 0.0204-2.9 0.0392-4.34 0.0561-2.02 0.024-4.04 0.0546-6.06 0.0856-1.15 0.0155-2.3 0.0311-3.49 0.0471-2.52-0.133-2.52-0.133-3.59 1.16-0.0989 1.71-0.128 3.42-0.129 5.13-0.00315 1.1-0.0063 2.19-0.00955 3.32 0.00202 1.19 0.00405 2.39 0.00613 3.62-9.57e-4 1.22-0.00191 2.45-0.0029 3.7-8.58e-4 3.26 0.00318 6.53 0.00876 9.79 0.00321 3.29-0.00443 6.59-0.00977 9.88 6.61e-4 2.52 0.00194 5.04 0.00391 7.56-0.00304 1.77-0.00304 1.77-0.00613 3.58 0.0167 5.9 0.239 11.6 1.14 17.4 0.8-0.00222 1.6-0.00444 2.42-0.00673 7.52-0.02 15-0.0352 22.6-0.0451 3.87-0.00523 7.73-0.0123 11.6-0.0236 3.73-0.0108 7.46-0.0168 11.2-0.0194 1.43-0.00185 2.85-0.00547 4.28-0.0109 1.99-0.00721 3.98-0.00768 5.97-0.0078 1.13-0.00222 2.27-0.00444 3.44-0.00673 2.55 0.12 2.55 0.12 3.55 1.12 0.124 2.02 0.178 4.05 0.205 6.08 0.0199 1.3 0.0399 2.6 0.0604 3.94 0.017 1.43 0.0339 2.86 0.0506 4.29 0.0206 1.46 0.0416 2.91 0.063 4.37 0.0553 3.84 0.105 7.68 0.153 11.5 0.0502 3.91 0.106 7.83 0.161 11.7 0.108 7.69 0.209 15.4 0.307 23.1 13.5 0.753 26.9 1.12 40.4 1 3.2-0.0268 6.39-0.0466 9.59-0.0625 1.06-0.0124 1.06-0.0124 2.14-0.0251 4.39-0.0216 8.58 0.299 12.9 1.09 1.74 1.74 1.12 4.01 1.13 6.34-0.00291 0.771-0.00583 1.54-0.00883 2.34 8.54e-4 0.813 0.00171 1.63 0.00259 2.47 0.00166 2.75-0.00387 5.49-0.00932 8.24-2.82e-4 1.96-1.24e-4 3.92 4.43e-4 5.88 2.88e-4 5.34-0.00561 10.7-0.0126 16-0.00623 5.57-0.00684 11.1-0.00803 16.7-0.00311 10.6-0.0113 21.1-0.0213 31.7-0.0112 12-0.0167 24-0.0217 36.1-0.0105 24.7-0.0281 49.5-0.0503 74.2-25.9 0.0233-51.8 0.041-77.7 0.0518-12 0.00516-24.1 0.0122-36.1 0.0236-10.5 0.00995-21 0.0164-31.4 0.0186-5.55 0.00131-11.1 0.00439-16.7 0.0116-5.22 0.00676-10.4 0.00889-15.7 0.00738-1.92 2.76e-4 -3.84 0.00228-5.76 0.0061-2.61 0.00494-5.23 0.00379-7.84 0.00105-0.768 0.00291-1.54 0.00583-2.33 0.00883-5.24-0.015-5.24-0.015-7.47-1.13v-66c-21 0.369-21 0.369-41.9 0.748-2.62 0.0439-5.24 0.0875-7.86 0.131-1.02 0.0201-1.02 0.0201-2.07 0.0405-2.01 0.0389-4.02 0.0707-6.02 0.102-1.13 0.02-2.27 0.04-3.43 0.0606-2.67-0.0823-2.67-0.0823-4.67-1.08-0.33-21.8-0.66-43.6-1-66-10.5-0.0206-21.1-0.0412-31.9-0.0625-3.33-0.0091-6.66-0.0182-10.1-0.0276-2.62-0.00292-5.24-0.00547-7.87-0.00757-0.686-0.00261-1.37-0.00523-2.08-0.00792-2.01-0.00728-4.02-0.00776-6.03-0.00795-1.13-0.00222-2.27-0.00444-3.44-0.00673-2.48-0.169-2.48-0.169-3.55 1.12-0.108 1.71-0.147 3.42-0.158 5.13-0.00979 1.11-0.0196 2.22-0.0297 3.37-0.00576 1.23-0.0115 2.46-0.0174 3.73-0.0099 1.29-0.0198 2.58-0.03 3.9-0.0271 3.54-0.0481 7.08-0.068 10.6-0.0218 3.7-0.0492 7.39-0.0761 11.1-0.05 7.01-0.0949 14-0.138 21-0.0493 7.97-0.104 15.9-0.16 23.9-0.114 16.4-0.221 32.8-0.323 49.2-26.1 0.0233-52.1 0.041-78.2 0.0518-12.1 0.00516-24.2 0.0122-36.3 0.0236-10.5 0.00994-21.1 0.0164-31.6 0.0186-5.59 0.00131-11.2 0.0044-16.8 0.0116-5.25 0.00676-10.5 0.00889-15.8 0.00738-1.93 2.76e-4 -3.87 0.00228-5.8 0.0061-2.63 0.00493-5.25 0.00379-7.88 0.00105-0.775 0.00291-1.55 0.00583-2.35 0.00883-5.25-0.015-5.25-0.015-6.36-1.13-0.102-3.15-0.137-6.28-0.131-9.44-0.00205-1.01-0.00411-2.02-0.00622-3.05-0.00571-3.42-0.00421-6.85-0.00279-10.3-0.00258-2.46-0.00559-4.92-9e-3 -7.38-0.00725-6.08-0.00977-12.2-0.0103-18.2-9.12e-4 -7.28-0.00757-14.6-0.0143-21.8-0.0161-17.6-0.022-35.2-0.0267-52.8-0.00233-8.32-0.00594-16.6-0.0097-25-0.0128-28.5-0.0236-56.9-0.027-85.4-2.22e-4 -1.79-4.43e-4 -3.58-6.65e-4 -5.36-2.21e-4 -1.79-4.41e-4 -3.58-6.61e-4 -5.38-4.43e-4 -3.6-8.9e-4 -7.19-0.00134-10.8-1.09e-4 -0.892-2.19e-4 -1.78-3.31e-4 -2.7-0.00363-28.9-0.0196-57.8-0.0429-86.8-0.0246-30.6-0.0383-61.1-0.0395-91.7-1.71e-4 -3.35-3.87e-4 -6.7-6.34e-4 -10.1-8.37e-5 -1.24-8.37e-5 -1.24-1.69e-4 -2.5-0.00115-13.3-0.0122-26.6-0.0267-39.9-0.0143-13.4-0.0176-26.7-0.00956-40.1 0.00447-7.95 5.47e-4 -15.9-0.0152-23.8-0.0108-5.92-0.00615-11.8 0.00477-17.8 0.00197-2.4-0.00119-4.81-0.00984-7.21-0.011-3.25-0.00369-6.51 0.00839-9.76-0.0076-0.947-0.0152-1.89-0.023-2.87 0.0507-6.26 0.0507-6.26 1.7-9.53 2.81-2.36 6.03-1.96 9.52-1.91z" fill="#45FD12"/>
</svg>
