<?xml version="1.0" standalone="no"?>
<!DOCTYPE svg PUBLIC "-//W3C//DTD SVG 20010904//EN"
 "http://www.w3.org/TR/2001/REC-SVG-20010904/DTD/svg10.dtd">
<svg version="1.0" xmlns="http://www.w3.org/2000/svg"
 width="800.000000pt" height="657.000000pt" viewBox="0 0 800.000000 657.000000"
 preserveAspectRatio="xMidYMid meet">
<metadata>
Created by potrace 1.16, written by Peter Selinger 2001-2019
</metadata>
<g transform="translate(0.000000,657.000000) scale(0.100000,-0.100000)"
fill="#000000" stroke="none">
<path d="M4809 6508 c-17 -35 -51 -100 -75 -145 -92 -173 -134 -252 -204 -388
-41 -77 -100 -189 -132 -249 -43 -82 -55 -112 -46 -118 7 -4 83 -7 168 -6
l155 2 -157 3 c-87 2 -158 7 -158 11 0 4 31 66 68 137 38 72 95 180 127 240
81 154 131 249 216 409 l73 138 22 -25 c19 -23 61 -100 237 -437 33 -63 70
-133 82 -155 12 -22 55 -102 94 -177 l72 -138 -155 0 -155 0 -34 58 -33 57
-119 3 c-65 1 -123 -2 -128 -7 -5 -5 33 -7 99 -4 131 5 148 2 164 -37 7 -17
21 -42 32 -55 19 -25 22 -25 173 -25 89 0 156 4 160 10 3 5 -1 20 -8 32 -8 13
-47 86 -87 163 -70 136 -122 234 -250 475 -33 63 -79 154 -103 202 -23 48 -48
87 -54 87 -7 1 -27 -27 -44 -61z"/>
<path d="M6319 6528 c-166 -207 -361 -443 -367 -445 -4 -1 -23 19 -42 44 -30
40 -218 273 -296 366 -13 16 -29 25 -35 21 -7 -4 -3 -14 13 -28 14 -11 45 -46
69 -76 24 -30 46 -57 49 -60 3 -3 59 -69 124 -148 66 -79 123 -139 127 -135 4
4 32 38 61 74 29 36 87 106 128 155 42 49 83 100 92 114 20 29 112 131 104
113 -4 -6 -2 -14 3 -17 14 -9 21 21 8 38 -11 14 -15 12 -38 -16z"/>
<path d="M1308 6521 c-105 -34 -187 -104 -207 -178 -13 -45 -14 -150 -3 -157
5 -3 7 19 4 48 -6 80 19 146 75 196 26 22 57 43 70 46 13 4 23 9 23 13 0 4 6
8 13 9 6 0 30 4 52 9 57 11 233 7 249 -6 7 -6 16 -8 19 -4 4 3 7 1 7 -6 0 -7
4 -10 9 -7 17 11 123 -71 162 -126 l20 -27 -96 -51 c-52 -29 -95 -54 -95 -56
0 -6 115 53 162 83 l39 24 -18 30 c-29 50 -100 109 -170 141 -56 27 -79 32
-162 34 -73 3 -110 -1 -153 -15z"/>
<path d="M1850 6499 c0 -10 5 -19 10 -19 6 0 10 3 10 8 0 7 736 5 758 -3 8 -3
12 -35 12 -114 l0 -110 -127 -4 -128 -3 133 -2 132 -2 0 130 c0 128 0 130 -22
131 -13 1 -193 3 -400 4 -368 4 -378 3 -378 -16z"/>
<path d="M2732 6507 c-10 -11 -12 -118 -12 -455 1 -385 3 -441 16 -446 28 -11
272 -7 279 4 9 15 12 280 3 280 -5 0 -8 -63 -8 -140 l0 -140 -135 0 -135 0 0
440 0 441 238 -1 c215 -1 317 -10 332 -30 3 -3 19 -12 36 -19 45 -18 92 -70
114 -127 10 -27 19 -41 20 -31 0 33 -49 114 -92 151 -72 62 -133 75 -406 82
-204 5 -239 4 -250 -9z"/>
<path d="M3648 6512 c-10 -2 -18 -9 -18 -15 0 -9 80 -11 320 -9 l320 3 0 -100
c0 -86 -2 -100 -17 -104 -14 -4 -13 -5 4 -6 19 -1 22 6 28 54 7 54 3 160 -6
170 -6 5 -606 12 -631 7z"/>
<path d="M3010 6186 c0 -84 0 -84 28 -91 89 -19 152 19 152 91 0 61 -32 84
-116 84 l-64 0 0 -84z m156 49 c18 -24 18 -76 0 -100 -10 -14 -30 -20 -80 -23
l-66 -4 0 53 c0 30 3 65 7 78 6 22 10 23 66 19 43 -3 63 -10 73 -23z"/>
<path d="M1972 6253 l128 -4 2 -322 3 -322 139 -3 c105 -2 141 1 148 10 10 17
7 628 -4 628 -4 0 -8 -142 -8 -315 l0 -315 -135 0 -135 0 0 325 0 325 -132 -2
-133 -2 127 -3z"/>
<path d="M3900 5839 c0 -15 41 -19 201 -19 l169 0 0 -105 0 -105 -322 -3 -323
-2 323 -3 c299 -2 323 -1 330 16 8 19 10 208 2 215 -8 8 -380 13 -380 6z"/>
</g>
</svg>
